<svg width="69" height="26" viewBox="0 0 69 26" fill="none" xmlns="http://www.w3.org/2000/svg">
<path d="M68.3652 12.0842C68.3327 12.0684 65.0656 10.5346 60.9704 6.62392C56.8751 2.71322 56.5763 0.697891 56.5378 0.628828C56.4748 0.495429 56.3846 0.37593 56.2725 0.277639C56.1604 0.179348 56.0289 0.104334 55.886 0.057184C55.7432 0.0100342 55.5919 -0.00825924 55.4415 0.00342292C55.2911 0.0151051 55.1447 0.0565171 55.0113 0.125126C54.8779 0.193734 54.7603 0.288096 54.6657 0.40244C54.5711 0.516783 54.5015 0.648704 54.461 0.790131C54.4206 0.931558 54.4103 1.07952 54.4307 1.22496C54.4511 1.3704 54.5018 1.51027 54.5796 1.636C54.6713 1.80578 55.0368 3.98226 59.4145 8.16058C60.8526 9.54158 62.394 10.817 64.0259 11.9763H1.10922C0.81504 11.9763 0.532904 12.09 0.324884 12.2924C0.116864 12.4948 0 12.7692 0 13.0554C0 13.3416 0.116864 13.6161 0.324884 13.8185C0.532904 14.0208 0.81504 14.1345 1.10922 14.1345H63.8692C62.1299 15.3467 60.5112 16.7147 59.0344 18.2208C54.67 22.6422 54.6521 24.2806 54.5737 24.4245C54.5067 24.5501 54.4658 24.6874 54.4533 24.8284C54.4408 24.9695 54.457 25.1115 54.5009 25.2465C54.5448 25.3814 54.6157 25.5066 54.7094 25.6149C54.8031 25.7232 54.9178 25.8125 55.047 25.8777C55.2043 25.9582 55.3795 26.0002 55.5572 26C55.7598 26.0007 55.9587 25.9474 56.1323 25.846C56.3059 25.7445 56.4477 25.5987 56.5422 25.4245C56.56 25.3914 56.5113 23.8983 60.6347 19.7215C64.7048 15.5964 68.2913 14.0683 68.3253 14.054C68.522 13.9725 68.6903 13.8374 68.81 13.6651C68.9297 13.4927 68.9956 13.2903 68.9998 13.0824C69.004 12.8744 68.9464 12.6697 68.8338 12.4929C68.7212 12.316 68.5585 12.1732 68.3652 12.0842Z" fill="white"/>
</svg>
