<svg width="29" height="11" viewBox="0 0 29 11" fill="none" xmlns="http://www.w3.org/2000/svg">
<path d="M28.7332 5.11256C28.7195 5.10586 27.3464 4.45695 25.6252 2.80243C23.904 1.1479 23.7784 0.295262 23.7623 0.266043C23.7358 0.209605 23.6979 0.159047 23.6508 0.117463C23.6037 0.0758782 23.5484 0.0441412 23.4883 0.0241932C23.4283 0.00424526 23.3647 -0.00349429 23.3015 0.00144816C23.2383 0.00639061 23.1768 0.0239111 23.1207 0.0529378C23.0646 0.0819644 23.0152 0.121887 22.9754 0.170263C22.9357 0.218639 22.9064 0.274452 22.8894 0.334286C22.8724 0.394121 22.8681 0.456719 22.8767 0.518252C22.8852 0.579785 22.9065 0.638959 22.9393 0.692153C22.9778 0.763983 23.1314 1.6848 24.9713 3.45255C25.5757 4.03682 26.2236 4.57642 26.9094 5.0669H0.466196C0.342553 5.0669 0.223974 5.115 0.136546 5.20062C0.0491169 5.28624 0 5.40236 0 5.52345C0 5.64453 0.0491169 5.76066 0.136546 5.84628C0.223974 5.93189 0.342553 5.98 0.466196 5.98H26.8436C26.1126 6.49283 25.4323 7.07162 24.8116 7.70879C22.9772 9.57941 22.9697 10.2726 22.9368 10.3334C22.9086 10.3866 22.8914 10.4447 22.8862 10.5043C22.8809 10.564 22.8877 10.6241 22.9062 10.6812C22.9246 10.7383 22.9544 10.7913 22.9938 10.8371C23.0332 10.8829 23.0814 10.9207 23.1357 10.9483C23.2018 10.9823 23.2754 11.0001 23.3501 11C23.4353 11.0003 23.5189 10.9778 23.5918 10.9348C23.6648 10.8919 23.7244 10.8302 23.7641 10.7565C23.7716 10.7425 23.7511 10.1108 25.4841 8.34369C27.1948 6.59846 28.7021 5.95199 28.7164 5.94591C28.7991 5.91144 28.8698 5.8543 28.9201 5.78137C28.9704 5.70844 28.9981 5.62284 28.9999 5.53485C29.0017 5.44687 28.9775 5.36026 28.9301 5.28544C28.8828 5.21063 28.8144 5.1502 28.7332 5.11256Z" fill="#D2A855"/>
</svg>
