<svg width="894" height="588" viewBox="0 0 894 588" fill="none" xmlns="http://www.w3.org/2000/svg">
<g style="mix-blend-mode:luminosity" opacity="0.05">
<path d="M847.191 131.048C843.996 106.391 836.452 85.3893 824.744 68.5901C812.934 51.0029 798.21 36.8843 781.07 26.6274L780.945 26.5292C764.27 15.5253 745.231 7.9186 724.329 4.10221C703.303 0.18751 681.817 -0.347831 660.423 2.42472C645.536 4.35406 631.088 7.94364 617.065 13.0808C611.395 15.1893 605.865 17.5087 600.364 20.0533C594.768 22.7247 589.2 25.6213 583.772 28.7287C578.661 31.6808 573.688 34.8437 568.76 38.3443C568.348 38.6267 567.84 39.0359 567.428 39.3182C561.661 43.271 556.298 47.7438 551.199 52.5258C545.497 57.8439 540.199 63.682 535.415 70.0259C529.755 77.3992 524.623 85.3907 520.145 94.099C516.021 102.075 512.425 110.668 509.329 119.656L506.882 126.727L505.414 124.055L503.235 120.216C498.12 111.034 492.101 102.656 485.507 95.0391C479.721 88.4624 473.472 82.6327 466.619 77.339C460.889 72.93 454.748 68.8034 448.239 65.2968C442.809 62.3371 437.078 59.6455 431.046 57.222C430.7 57.1522 430.45 56.9557 430.105 56.8859C424.197 54.5607 418.208 52.4749 412.153 50.7411C406.333 49.0914 400.431 47.6811 394.449 46.5103C388.591 45.4378 382.763 44.5904 376.868 44.0951C371.084 43.5855 365.328 43.3011 359.381 43.2704C353.655 43.2112 347.862 43.504 342.099 44.022C339.107 44.2953 336.005 44.5829 333.027 44.9687C330.27 45.326 327.638 45.7816 325.006 46.2372C319.301 47.2055 313.625 48.399 307.993 49.9303C302.236 51.3632 296.633 53.1197 291.059 55.1013C285.374 57.0972 279.844 59.4166 274.329 61.8485C268.718 64.4074 263.15 67.304 257.722 70.4114C254.589 72.1912 251.47 74.0836 248.462 75.9617C245.961 77.4305 243.586 78.9977 241.335 80.6632C235.568 84.6159 230.19 88.9761 225.077 93.6455C219.36 98.851 214.047 104.577 209.233 110.695C203.544 117.843 198.384 125.61 193.958 133.853C192.882 135.939 191.793 137.912 190.717 139.997L185.834 149.903L174.876 65.3501L187.284 58.1327L202.892 48.7834L202.76 47.7701L186.219 49.9139L169.016 52.1433L151.813 54.3728L134.61 56.6023L117.407 58.8317L100.203 61.0612L83.0003 63.2907L53.0051 67.178C20.1427 71.4368 -8.83413 78.8554 -33.499 89.264C-45.9345 94.5389 -57.2607 100.586 -67.4923 107.292C-98.5616 127.117 -122.262 151.023 -138.13 178.265C-139.698 180.872 -141.252 183.592 -142.695 186.297C-156.481 211.437 -165.395 238.694 -169.098 267.221C-173.026 299.211 -173.277 330.152 -169.468 359.538C-165.675 388.81 -157.53 418.778 -145.372 448.569C-134.452 474.858 -119.039 498.618 -99.3003 519.413C-97.2149 521.661 -95.0338 523.783 -92.8381 526.017C-69.9989 548.242 -40.9873 565.317 -6.44222 576.638C5.61662 580.57 18.6615 583.459 32.6924 585.304C58.8065 588.673 88.0264 588.321 120.337 584.134L129.049 583.005L146.252 580.775L163.455 578.546L180.438 576.345L197.641 574.115L214.844 571.886L232.047 569.656L239.877 568.642L215.16 377.92L188.502 172.224L188.569 171.872C189.291 162.734 191.395 153.876 194.77 145.31C195.094 144.353 195.543 143.493 195.882 142.648L195.978 142.521C199.867 134.461 204.462 126.654 209.901 119.309C214.575 112.979 219.83 106.804 225.694 101.007C225.996 100.739 226.283 100.358 226.584 100.09C231.367 95.4633 236.414 91.1459 241.835 87.1235C247.051 83.2422 252.531 79.6701 258.29 76.5197C262.879 73.8643 267.733 71.5181 272.712 69.2702C273.455 68.945 274.197 68.6198 274.925 68.182C280.426 65.6374 286.067 63.3038 291.641 61.3221C297.214 59.3405 302.832 57.6967 308.589 56.2637C314.236 54.845 319.941 53.8767 325.661 53.021C325.882 52.9924 326.102 52.9638 326.323 52.9352C331.836 52.2206 337.394 51.8438 342.871 51.7065C348.692 51.6388 354.558 51.909 360.357 52.5311C365.245 53.0425 369.956 53.9202 374.792 54.8961C375.828 55.1053 376.989 55.4127 378.026 55.6218C384.162 57.1161 390.122 58.9767 395.934 61.4289C402.341 64.1473 408.366 67.3733 414.132 71.2051C416.086 72.44 417.945 73.8019 419.803 75.1637C424.38 78.4629 428.779 82.1284 432.811 86.414C440.315 94.1417 446.922 103.589 452.601 114.529C452.769 114.965 453.034 115.275 453.188 115.598C462.646 132.345 468.785 153.758 471.45 179.514L484.466 279.941L517.149 532.136L523.876 531.264L540.969 529.049L558.172 526.819L565.34 525.89L542.768 351.718L519.67 173.494C519.437 171.692 519.203 169.891 518.97 168.089C516.16 147.275 513.607 127.572 521.287 107.23C522.208 104.822 523.239 102.398 524.491 99.9465C527.85 92.986 531.694 86.3061 536.258 79.9907C540.917 73.5485 546.172 67.3726 552.05 61.6882C553.147 60.6303 554.133 59.5867 555.244 58.6414C559.371 55.0156 563.734 51.4738 568.25 48.2555C573.466 44.3742 578.946 40.802 584.69 37.5391C590.118 34.4316 595.575 31.5493 601.296 28.9762L601.407 28.9619C606.893 26.3048 612.533 23.9711 618.093 21.8769C630.079 17.4616 642.13 14.4116 654.15 12.8538C670.471 10.7387 686.701 11.3828 702.509 14.829C718.906 17.6266 733.756 24.059 746.521 34.3103C759.846 43.6877 771.036 57.3487 780.031 74.8428C789.489 91.59 795.584 112.665 798.162 137.745L844.853 490.239L893.926 483.879L847.191 131.048ZM200.17 566.804L196.972 567.219L179.769 569.448L162.565 571.678L145.362 573.907L128.159 576.137L119.227 577.294C102.575 579.452 86.9904 580.327 72.3627 579.933C48.848 579.318 28.0563 575.487 10.0833 568.315C-18.948 556.279 -43.0637 538.913 -61.6394 516.707C-80.5897 494.207 -94.8467 468.122 -104.073 439.325C-107.892 428.029 -111.159 416.661 -114.081 405.363C-118.606 387.747 -122.015 370.101 -124.262 352.763C-126.538 335.2 -127.755 317.155 -127.869 298.968C-127.924 287.299 -127.633 275.699 -126.806 263.915C-124.674 233.645 -117.287 204.984 -104.626 178.96C-91.8682 152.808 -72.7264 130.065 -47.4433 111.448C-31.8258 99.5791 -12.631 90.2229 9.72931 83.6618C23.3323 79.6093 38.184 76.5398 54.1741 74.4675L83.8384 70.6231L101.042 68.3936L118.245 66.1642L135.007 63.9919L136.13 72.661L190.131 489.345L200.17 566.804Z" fill="url(#paint0_linear_634_82)"/>
</g>
<defs>
<linearGradient id="paint0_linear_634_82" x1="662.11" y1="546.832" x2="131.338" y2="593.367" gradientUnits="userSpaceOnUse">
<stop stop-color="#B38A37"/>
<stop offset="1" stop-color="#D2A855"/>
</linearGradient>
</defs>
</svg>
